<?xml version="1.0"?><svg class="icon-soc icon-footer"" xmlns="http://www.w3.org/2000/svg"  viewBox="0 0 30 30" width="30px" height="30px">    <path d="M 6 4 C 4.895 4 4 4.895 4 6 L 4 24 C 4 25.105 4.895 26 6 26 L 24 26 C 25.105 26 26 25.105 26 24 L 26 6 C 26 4.895 25.105 4 24 4 L 6 4 z M 14.998047 7 C 17.325047 7 19.216797 8.89275 19.216797 11.21875 C 19.216797 13.54475 17.324047 15.433594 14.998047 15.433594 C 12.672047 15.433594 10.78125 13.541797 10.78125 11.216797 C 10.78125 8.8907969 12.672047 6.999 14.998047 7 z M 14.998047 9.5195312 C 14.063047 9.5195312 13.302734 10.280797 13.302734 11.216797 C 13.302734 12.151797 14.063047 12.912109 14.998047 12.912109 C 15.934047 12.912109 16.695312 12.151797 16.695312 11.216797 C 16.695312 10.280797 15.934047 9.5195312 14.998047 9.5195312 z M 11.794922 15.46875 C 11.948937 15.493813 12.099734 15.550172 12.240234 15.638672 C 13.917234 16.694672 16.080766 16.694672 17.759766 15.638672 C 18.320766 15.284672 19.061062 15.453625 19.414062 16.015625 C 19.766063 16.577625 19.599109 17.320828 19.037109 17.673828 C 18.296109 18.138828 17.49025 18.468203 16.65625 18.658203 L 18.949219 20.951172 C 19.418219 21.419172 19.418219 22.179438 18.949219 22.648438 C 18.480219 23.117438 17.720953 23.117437 17.251953 22.648438 L 15 20.396484 L 12.748047 22.648438 C 12.513047 22.883437 12.205438 23 11.898438 23 C 11.591437 23 11.285781 22.883437 11.050781 22.648438 C 10.581781 22.180438 10.580828 21.418219 11.048828 20.949219 L 13.341797 18.658203 C 12.506797 18.468203 11.701937 18.136875 10.960938 17.671875 C 10.399938 17.318875 10.231938 16.577625 10.585938 16.015625 C 10.850687 15.594125 11.332875 15.393562 11.794922 15.46875 z"/></svg>